<svg width="150" height="26" viewBox="0 0 150 26" fill="none" xmlns="http://www.w3.org/2000/svg">
<path d="M31.6013 5.1171V1.8847H48.5573V5.1171H41.9887V23.1707H38.17V5.1171H31.6013Z" fill="#141619"/>
<path d="M56.4049 23.4825C54.8069 23.4825 53.4267 23.1499 52.2645 22.4848C51.1092 21.8126 50.2202 20.8634 49.5976 19.6369C48.975 18.4035 48.6637 16.9519 48.6637 15.282C48.6637 13.6398 48.975 12.1986 49.5976 10.9583C50.2271 9.71106 51.1057 8.74099 52.2334 8.04809C53.361 7.34825 54.6858 6.99834 56.2077 6.99834C57.1901 6.99834 58.1171 7.15771 58.9888 7.47644C59.8674 7.78825 60.6422 8.27328 61.3132 8.93154C61.9912 9.5898 62.5239 10.4282 62.9113 11.4468C63.2987 12.4584 63.4924 13.6641 63.4924 15.0637V16.2174H50.4278V13.6814H59.8916C59.8846 12.9608 59.729 12.3198 59.4246 11.7586C59.1202 11.1904 58.6948 10.7435 58.1482 10.4178C57.6086 10.0922 56.9791 9.92933 56.2596 9.92933C55.4917 9.92933 54.8172 10.1164 54.2361 10.4906C53.655 10.8578 53.2019 11.3428 52.8767 11.9457C52.5585 12.5416 52.3959 13.1964 52.389 13.9101V16.1239C52.389 17.0524 52.5585 17.8492 52.8975 18.5144C53.2365 19.1727 53.7103 19.6785 54.3191 20.0319C54.9279 20.3783 55.6405 20.5516 56.4568 20.5516C57.0033 20.5516 57.4979 20.4753 57.9407 20.3229C58.3834 20.1635 58.7674 19.9314 59.0925 19.6265C59.4177 19.3216 59.6633 18.944 59.8293 18.4936L63.3367 18.8886C63.1153 19.8171 62.6933 20.6278 62.0707 21.3207C61.455 22.0067 60.6664 22.5402 59.7048 22.9213C58.7432 23.2955 57.6432 23.4825 56.4049 23.4825Z" fill="#141619"/>
<path d="M73.6229 23.4825C72.0318 23.4825 70.6655 23.1326 69.524 22.4328C68.3894 21.733 67.5143 20.7664 66.8986 19.533C66.2898 18.2927 65.9854 16.8653 65.9854 15.2508C65.9854 13.6294 66.2968 12.1986 66.9194 10.9583C67.542 9.71106 68.4206 8.74099 69.5551 8.04809C70.6966 7.34825 72.0456 6.99834 73.6021 6.99834C74.8958 6.99834 76.0407 7.23739 77.0369 7.71549C78.04 8.18667 78.8391 8.85532 79.434 9.72145C80.0289 10.5807 80.3679 11.5854 80.4509 12.7356H76.8605C76.7152 11.9665 76.3693 11.3255 75.8228 10.8128C75.2832 10.2931 74.5603 10.0333 73.654 10.0333C72.8861 10.0333 72.2116 10.2411 71.6305 10.6569C71.0494 11.0657 70.5963 11.6547 70.2711 12.4238C69.9529 13.1929 69.7938 14.1145 69.7938 15.1885C69.7938 16.2763 69.9529 17.2118 70.2711 17.9947C70.5894 18.7708 71.0356 19.3702 71.6098 19.7928C72.1909 20.2086 72.8723 20.4164 73.654 20.4164C74.2075 20.4164 74.7021 20.3125 75.1379 20.1046C75.5807 19.8898 75.9508 19.5815 76.2483 19.1796C76.5457 18.7777 76.7498 18.2892 76.8605 17.7141H80.4509C80.361 18.8435 80.0289 19.8448 79.4548 20.7179C78.8806 21.584 78.0988 22.263 77.1096 22.755C76.1203 23.24 74.9581 23.4825 73.6229 23.4825Z" fill="#141619"/>
<path d="M87.292 13.8165V23.1707H83.5355V1.8847H87.2089V9.91893H87.3957C87.7693 9.01815 88.347 8.30793 89.1287 7.78825C89.9173 7.26164 90.9204 6.99834 92.138 6.99834C93.2449 6.99834 94.2099 7.23046 95.0332 7.69471C95.8564 8.15895 96.4929 8.838 96.9426 9.73185C97.3991 10.6257 97.6274 11.717 97.6274 13.0058V23.1707H93.871V13.5879C93.871 12.5139 93.5942 11.6789 93.0408 11.083C92.4943 10.4802 91.7264 10.1788 90.7371 10.1788C90.073 10.1788 89.478 10.3243 88.9523 10.6153C88.4334 10.8994 88.0253 11.3117 87.7278 11.8521C87.4372 12.3926 87.292 13.0474 87.292 13.8165Z" fill="#141619"/>
<path d="M101.623 23.1707V1.8847H105.472V19.9383H114.832V23.1707H101.623Z" fill="#141619"/>
<path d="M122.594 23.4929C121.584 23.4929 120.675 23.3128 119.865 22.9525C119.063 22.5852 118.426 22.0448 117.956 21.3311C117.492 20.6174 117.261 19.7374 117.261 18.6911C117.261 17.7903 117.427 17.0455 117.759 16.4565C118.091 15.8675 118.544 15.3963 119.118 15.043C119.692 14.6896 120.339 14.4228 121.059 14.2427C121.785 14.0556 122.536 13.9205 123.31 13.8373C124.244 13.7403 125.002 13.6537 125.583 13.5775C126.164 13.4943 126.586 13.3696 126.849 13.2033C127.119 13.0301 127.254 12.7633 127.254 12.403V12.3406C127.254 11.5577 127.022 10.9514 126.558 10.5218C126.095 10.0922 125.427 9.87736 124.556 9.87736C123.636 9.87736 122.906 10.0783 122.366 10.4802C121.833 10.8821 121.474 11.3567 121.287 11.9041L117.78 11.4052C118.056 10.4351 118.513 9.62445 119.149 8.97312C119.786 8.31486 120.564 7.82289 121.484 7.49723C122.404 7.16464 123.421 6.99834 124.535 6.99834C125.303 6.99834 126.067 7.08842 126.828 7.26857C127.589 7.44873 128.284 7.74667 128.914 8.16242C129.544 8.57123 130.049 9.12902 130.429 9.83578C130.816 10.5425 131.01 11.426 131.01 12.4861V23.1707H127.399V20.9777H127.274C127.046 21.4212 126.724 21.8369 126.309 22.2249C125.901 22.606 125.386 22.9144 124.763 23.1499C124.148 23.3786 123.425 23.4929 122.594 23.4929ZM123.57 20.7282C124.324 20.7282 124.978 20.5793 125.531 20.2813C126.085 19.9764 126.51 19.5746 126.807 19.0757C127.112 18.5768 127.264 18.0328 127.264 17.4439V15.5626C127.146 15.6596 126.946 15.7497 126.662 15.8329C126.385 15.916 126.074 15.9888 125.728 16.0511C125.382 16.1135 125.04 16.1689 124.701 16.2174C124.362 16.2659 124.068 16.3075 123.819 16.3422C123.259 16.4184 122.757 16.5431 122.314 16.7163C121.871 16.8896 121.522 17.1321 121.266 17.4439C121.01 17.7488 120.882 18.1437 120.882 18.6287C120.882 19.3216 121.135 19.8448 121.64 20.1982C122.145 20.5516 122.788 20.7282 123.57 20.7282Z" fill="#141619"/>
<path d="M134.953 23.1707V1.8847H138.71V9.84618H138.866C139.059 9.45815 139.332 9.04587 139.685 8.60934C140.038 8.16588 140.515 7.78825 141.117 7.47644C141.719 7.15771 142.487 6.99834 143.421 6.99834C144.652 6.99834 145.763 7.31361 146.752 7.94415C147.748 8.56777 148.537 9.49279 149.118 10.7192C149.706 11.9387 150 13.4354 150 15.2093C150 16.9623 149.713 18.4521 149.139 19.6785C148.565 20.9049 147.783 21.8404 146.794 22.4848C145.804 23.1292 144.684 23.4514 143.431 23.4514C142.518 23.4514 141.761 23.2989 141.159 22.994C140.557 22.6892 140.073 22.3219 139.706 21.8923C139.346 21.4558 139.066 21.0435 138.866 20.6555H138.648V23.1707H134.953ZM138.637 15.1885C138.637 16.2209 138.783 17.1251 139.073 17.9012C139.371 18.6772 139.796 19.2835 140.349 19.7201C140.91 20.1497 141.588 20.3645 142.383 20.3645C143.213 20.3645 143.909 20.1427 144.469 19.6993C145.029 19.2489 145.451 18.6357 145.735 17.8596C146.026 17.0766 146.171 16.1863 146.171 15.1885C146.171 14.1976 146.029 13.3176 145.745 12.5485C145.462 11.7794 145.04 11.1766 144.479 10.74C143.919 10.3035 143.22 10.0852 142.383 10.0852C141.581 10.0852 140.899 10.2966 140.339 10.7192C139.779 11.1419 139.353 11.7343 139.063 12.4965C138.779 13.2587 138.637 14.156 138.637 15.1885Z" fill="#141619"/>
<path d="M8.52295 15.6504V9.95935C8.52295 9.55623 8.65908 9.21833 8.93134 8.94563C9.20361 8.67293 9.54097 8.53659 9.94345 8.53659H15.6254C16.0279 8.53659 16.3653 8.67293 16.6375 8.94563C16.9098 9.21833 17.0459 9.55623 17.0459 9.95935V15.6504C17.0459 16.0535 16.9098 16.3914 16.6375 16.6641C16.3653 16.9368 16.0279 17.0732 15.6254 17.0732H9.94345C9.54097 17.0732 9.20361 16.9368 8.93134 16.6641C8.65908 16.3914 8.52295 16.0535 8.52295 15.6504ZM8.52295 24.187V22.7642H5.68197C4.9007 22.7642 4.23188 22.4856 3.67552 21.9284C3.11916 21.3711 2.84098 20.7012 2.84098 19.9187V17.0732H1.42049C1.01802 17.0732 0.680653 16.9368 0.408392 16.6641C0.136131 16.3914 0 16.0535 0 15.6504C0 15.2473 0.136131 14.9094 0.408392 14.6367C0.680653 14.364 1.01802 14.2276 1.42049 14.2276H2.84098V11.3821H1.42049C1.01802 11.3821 0.680653 11.2458 0.408392 10.9731C0.136131 10.7004 0 10.3625 0 9.95935C0 9.55623 0.136131 9.21833 0.408392 8.94563C0.680653 8.67293 1.01802 8.53659 1.42049 8.53659H2.84098V5.69106C2.84098 4.90854 3.11916 4.23865 3.67552 3.6814C4.23188 3.12415 4.9007 2.84553 5.68197 2.84553H8.52295V1.42276C8.52295 1.01965 8.65908 0.681741 8.93134 0.409045C9.20361 0.136348 9.54097 0 9.94345 0C10.3459 0 10.6833 0.136348 10.9555 0.409045C11.2278 0.681741 11.3639 1.01965 11.3639 1.42276V2.84553H14.2049V1.42276C14.2049 1.01965 14.3411 0.681741 14.6133 0.409045C14.8856 0.136348 15.2229 0 15.6254 0C16.0279 0 16.3653 0.136348 16.6375 0.409045C16.9098 0.681741 17.0459 1.01965 17.0459 1.42276V2.84553H19.8869C20.6682 2.84553 21.337 3.12415 21.8933 3.6814C22.4497 4.23865 22.7279 4.90854 22.7279 5.69106V8.53659H24.1484C24.5508 8.53659 24.8882 8.67293 25.1605 8.94563C25.4327 9.21833 25.5689 9.55623 25.5689 9.95935C25.5689 10.3625 25.4327 10.7004 25.1605 10.9731C24.8882 11.2458 24.5508 11.3821 24.1484 11.3821H22.7279V14.2276H24.1484C24.5508 14.2276 24.8882 14.364 25.1605 14.6367C25.4327 14.9094 25.5689 15.2473 25.5689 15.6504C25.5689 16.0535 25.4327 16.3914 25.1605 16.6641C24.8882 16.9368 24.5508 17.0732 24.1484 17.0732H22.7279V19.9187C22.7279 20.7012 22.4497 21.3711 21.8933 21.9284C21.337 22.4856 20.6682 22.7642 19.8869 22.7642H17.0459V24.187C17.0459 24.5901 16.9098 24.928 16.6375 25.2007C16.3653 25.4734 16.0279 25.6098 15.6254 25.6098C15.2229 25.6098 14.8856 25.4734 14.6133 25.2007C14.3411 24.928 14.2049 24.5901 14.2049 24.187V22.7642H11.3639V24.187C11.3639 24.5901 11.2278 24.928 10.9555 25.2007C10.6833 25.4734 10.3459 25.6098 9.94345 25.6098C9.54097 25.6098 9.20361 25.4734 8.93134 25.2007C8.65908 24.928 8.52295 24.5901 8.52295 24.187ZM19.8869 19.9187V5.69106H5.68197V19.9187H19.8869Z" fill="#141619"/>
</svg>
